<?xml version="1.0" encoding="UTF-8"?>
<svg id="Layer_2" data-name="Layer 2" xmlns="http://www.w3.org/2000/svg" viewBox="0 0 865.6 865.6">
  <defs>
    <style>
      .cls-1 {
        fill: #ccd8e2;
      }

      .cls-2 {
        fill: #f7ad97;
      }

      .cls-3 {
        fill: #efa18f;
      }

      .cls-4 {
        fill: #e59689;
      }

      .cls-5 {
        fill: #303d89;
      }

      .cls-6 {
        fill: #ebf1f7;
      }

      .cls-7 {
        fill: #24326b;
      }

      .cls-8 {
        fill: #4f3535;
      }
    </style>
  </defs>
  <g id="Objects">
    <g>
      <circle class="cls-6" cx="434.66" cy="432.8" r="421.8"/>
      <path class="cls-5" d="m698.76,760.2h0c-10,8.14-20.37,15.82-31.1,23.02-66.88,44.92-147.35,71.19-233.94,71.38h-.92c-86.94,0-167.74-26.3-234.86-71.38-10.73-7.2-21.1-14.88-31.1-23.01h0c7.28-29.43,17.47-55.03,31.26-68.82,40.13-40.14,87.09-55.75,142.58-63.96h184.24c55.47,8.21,102.45,23.82,142.58,63.96,6.6,6.6,12.38,15.91,17.4,27.05,5.48,12.13,10.07,26.42,13.86,41.76Z"/>
      <path class="cls-3" d="m524.92,627.43s-26.09,33.94-92.12,63.18c-66.03-29.24-92.12-63.18-92.12-63.18,18.34-11.69,32.59-29.28,40.25-49.23l103.72-.05c7.66,19.97,21.92,37.58,40.27,49.28Z"/>
      <path class="cls-4" d="m492.34,593.9c-36.71,14.53-79.9,11.2-115.36-6.76,1.46-2.92,2.78-5.9,3.95-8.94l103.72-.05c2.09,5.45,4.67,10.73,7.69,15.75Z"/>
      <path class="cls-8" d="m263.51,353.84c-2.94-14.06-5.02-28.29-5.79-42.7-2.34-43.83,8.99-90.35,39.94-121.48,38.59-38.84,98.22-46.19,152.95-46.83,19.64-.23,40.09.31,57.6,9.21,17.3,8.81,30.74,28.17,26.73,47.09,17.57-3.88,36.59,5.48,47.84,19.8,11.88,15.16,16.54,34.75,18.78,53.88,3.12,26.57,2.13,53.58-2.78,79.86l-12.23,16.88h-308.36l-14.68-15.71Z"/>
      <path class="cls-2" d="m617.46,400.22c-1.4,15.99-2.88,32.34-9.53,46.95-4.13,9.05-10.99,17.78-20.67,20.11-6.32,1.51-13.59-1.04-17.7-5.75-12.55,44.06-41.35,92.22-84.91,116.62,0,0-19.79,11-51.85,11s-51.87-10.95-51.87-10.95c-43.58-24.36-72.41-72.51-84.98-116.56-4.12,4.65-11.35,7.14-17.61,5.64-9.68-2.33-16.54-11.06-20.67-20.11-6.65-14.61-8.13-30.96-9.53-46.95-.82-9.37-1.62-19,.92-28.06,2.16-7.72,7.3-15.06,14.45-18.32,0,0,12.91-6.85,30.04,0,0,0,.59-40.26,22.3-63.74,0,0,119.17,40.3,222.18-1.06,0,0,24.45,20.14,30.36,64.8,0,0,11.31-7.42,30.39-1.17,8.88,2.27,15.27,10.62,17.76,19.49,2.54,9.06,1.74,18.69.92,28.06Z"/>
      <path class="cls-1" d="m856.46,432.8c0,232.95-188.84,421.8-421.8,421.8h-.94c86.59-.19,167.06-26.46,233.94-71.38,10.73-7.2,21.1-14.88,31.1-23.01h0c-3.79-15.35-8.38-29.64-13.86-41.77,82.66-77,134.35-186.8,134.35-308.68,0-143.74-71.89-270.68-181.68-346.83,130.47,71.72,218.89,210.46,218.89,369.87Z"/>
      <path class="cls-7" d="m698.76,760.2h0c-10,8.14-20.37,15.82-31.1,23.02-66.88,44.92-147.35,71.19-233.94,71.38-88.86-.19-171.27-27.87-239.18-74.97,60.2,33.1,129.36,51.93,202.91,51.93,111.08,0,212.11-42.93,287.45-113.12,5.48,12.13,10.07,26.42,13.86,41.76Z"/>
      <path d="m432.8,865.6c-58.42,0-115.1-11.44-168.47-34.02-51.54-21.8-97.82-53-137.57-92.75s-70.95-86.03-92.75-137.57C11.44,547.9,0,491.22,0,432.8s11.44-115.1,34.02-168.47c21.8-51.54,53-97.82,92.75-137.57s86.03-70.95,137.57-92.75C317.7,11.44,374.38,0,432.8,0s115.1,11.44,168.47,34.02c51.54,21.8,97.82,53,137.57,92.75s70.95,86.03,92.75,137.57c22.57,53.36,34.02,110.05,34.02,168.47s-11.44,115.1-34.02,168.47c-21.8,51.54-53,97.82-92.75,137.57s-86.03,70.95-137.57,92.75c-53.36,22.57-110.05,34.02-168.47,34.02Zm0-843.6c-55.46,0-109.26,10.86-159.9,32.28-48.92,20.69-92.85,50.31-130.58,88.04-37.73,37.73-67.35,81.66-88.04,130.58-21.42,50.64-32.28,104.44-32.28,159.9s10.86,109.26,32.28,159.9c20.69,48.92,50.31,92.85,88.04,130.58,37.73,37.73,81.66,67.35,130.58,88.04,50.64,21.42,104.44,32.28,159.9,32.28s109.26-10.86,159.9-32.28c48.92-20.69,92.85-50.31,130.58-88.04,37.73-37.73,67.35-81.67,88.04-130.58,21.42-50.64,32.28-104.44,32.28-159.9s-10.86-109.26-32.28-159.9c-20.69-48.92-50.31-92.85-88.04-130.58-37.73-37.73-81.67-67.35-130.58-88.04-50.64-21.42-104.44-32.28-159.9-32.28Z"/>
    </g>
  </g>
</svg>