<svg id="Location-Indicator-Shadow" viewBox="-0.5 -0.5 1 1" xmlns="http://www.w3.org/2000/svg" height="1" width="1">
  <desc>Location Indicator Shadow</desc>
  <defs>
    <filter id="blur">
      <feGaussianBlur stdDeviation="1.5" />
    </filter>
  </defs>
  <path fill="#000000" opacity="0.2" filter="url(#blur)" d="M15.5 8C12.4611 8 10 10.5784 10 13.75C10.001 13.9109 10.0764 17.6613 14.2902 24.5391C14.4711 24.9304 14.8395 25.1946 15.2568 25.2317C15.9002 25.2317 16.3395 24.5061 16.3821 24.4326C20.6345 17.5538 20.6345 13.9016 20.6321 13.7486C20.6321 10.5784 18.1703 8 15.5 8ZM15.5 16.0686C14.1309 16.0686 13.0227 14.9604 13.0227 13.5914C13.0227 12.2223 14.1309 11.1141 15.5 11.1141C16.8691 11.1141 17.9773 12.2223 17.9773 13.5914C17.9758 14.9598 16.8684 16.0672 15.5 16.0686Z" transform="scale(0.8) translate(3.5, 3.5)"/>
</svg>