<svg id="Location-Indicator-Red--Streamline-Openmoji.svg" viewBox="-0.5 -0.5 27 27" xmlns="http://www.w3.org/2000/svg" height="48" width="48"><desc>Location Indicator Red Streamline Emoji: https://streamlinehq.com</desc><g id="color"><path fill="#ffffff" d="M11.15427361111111 10.60479861111111c0 3.2447097222222223 3.5125152777777773 5.272669444444444 6.322536111111111 3.6502930555555553 1.3041527777777777 -0.7529124999999999 2.1075263888888887 -2.144425 2.1075263888888887 -3.6502930555555553 0 -3.2447527777777774 -3.5125583333333332 -5.2727125 -6.3225791666666655 -3.6503361111111103 -1.3041097222222222 0.7529555555555555 -2.107483333333333 2.144425 -2.107483333333333 3.6503361111111103" stroke-width="1"></path><path fill="#d22f27" d="M24.77761111111111 10.748044444444444c0 -5.4341277777777774 -4.161706944444444 -9.854598611111111 -9.277697222222223 -9.854598611111111S6.222216666666665 5.313873611111111 6.222216666666665 10.750369444444443c0.00155 0.27146527777777774 0.13054444444444444 6.7723375 7.561287499999999 18.227827777777776 0.3111625 0.6391597222222222 0.9353388888888888 1.0676916666666665 1.6436027777777777 1.1284430555555554 1.0730736111111112 0 1.8050180555555555 -1.1823055555555555 1.876275 -1.3025166666666665C24.781529166666665 17.342304166666665 24.781529166666665 11.006722222222221 24.77761111111111 10.748044444444444Zm-9.277654166666666 3.9690333333333334c-2.281944444444444 0 -4.131826388888889 -1.8498819444444443 -4.131826388888889 -4.131826388888889s1.8498819444444443 -4.131869444444444 4.131826388888889 -4.131869444444444 4.131869444444444 1.8498819444444443 4.131869444444444 4.131869444444444c-0.002626388888888889 2.2808680555555556 -1.8509583333333333 4.1292 -4.131869444444444 4.131826388888889Z" stroke-width="1"></path><path fill="#ea5a47" d="M24.77761111111111 10.748044444444444c0 -5.4341277777777774 -4.161706944444444 -9.854598611111111 -9.277697222222223 -9.854598611111111 -0.7616527777777777 0.003358333333333333 -1.5196027777777776 0.10639027777777776 -2.254475 0.30651249999999997 4.897354166666666 0.2621222222222222 8.808391666666667 4.563458333333333 8.808391666666667 9.829324999999999 0.0039611111111111106 0.2588069444444444 0.0039611111111111106 6.594302777777777 -7.474272222222222 18.05612222222222 -0.10066388888888889 0.1643861111111111 -0.21514861111111108 0.3199888888888889 -0.3421625 0.4650861111111111 0.30367083333333333 0.34052638888888886 0.7336666666666666 0.5415527777777778 1.189711111111111 0.5561916666666666 1.0730736111111112 0 1.8050180555555555 -1.1822624999999998 1.876275 -1.3025166666666665C24.781529166666665 17.342304166666665 24.781529166666665 11.006722222222221 24.77761111111111 10.748044444444444Z" stroke-width="1"></path></g><g id="line"><path fill="none" stroke="#000000" stroke-linecap="round" stroke-linejoin="round" stroke-width="1" d="M15.427106944444443 30.106640277777775c-0.7082638888888888 -0.060794444444444436 -1.3324402777777777 -0.48928333333333335 -1.6436027777777777 -1.1284430555555554 -7.430915277777777 -11.455490277777777 -7.559737499999999 -17.9563625 -7.561287499999999 -18.227827777777776 0 -5.436538888888888 4.161620833333333 -9.857009722222221 9.277697222222223 -9.857009722222221S24.77761111111111 5.313830555555555 24.77761111111111 10.748044444444444c0.0039611111111111106 0.2588069444444444 0.0039611111111111106 6.594302777777777 -7.4742291666666665 18.05612222222222 -0.07125694444444444 0.12016805555555556 -0.8032013888888888 1.302473611111111 -1.876275 1.302473611111111Z"></path><path fill="none" stroke="#000000" stroke-linecap="round" stroke-linejoin="round" stroke-width="1" d="M15.499956944444442 14.717077777777778c-2.281944444444444 0 -4.131826388888889 -1.8499680555555555 -4.131783333333333 -4.131912499999999 0 -2.281944444444444 1.8499680555555555 -4.131826388888889 4.131912499999999 -4.131783333333333 2.281944444444444 0 4.131783333333333 1.8499249999999998 4.131783333333333 4.131869444444444 -0.0025833333333333333 2.2808680555555556 -1.8510013888888888 4.1292430555555555 -4.131912499999999 4.131826388888889Z"></path></g></svg>