<?xml version="1.0" encoding="UTF-8"?>
<svg id="Layer_2" data-name="Layer 2" xmlns="http://www.w3.org/2000/svg" xmlns:xlink="http://www.w3.org/1999/xlink" viewBox="0 0 1845.73 1357.64">
  <defs>
    <style>
      .cls-1 {
        fill: #b7b7b7;
      }

      .cls-2 {
        fill: #3f3f3c;
      }

      .cls-3 {
        fill: #fff;
      }

      .cls-4 {
        fill: url(#Sfumatura_senza_nome_13-2);
      }

      .cls-5 {
        fill: #d1d1d1;
      }

      .cls-6 {
        fill: #2f659b;
      }

      .cls-7 {
        fill: #4581ed;
      }

      .cls-8 {
        fill: #c12121;
      }

      .cls-9 {
        fill: #2e4faa;
      }

      .cls-10 {
        fill: #961111;
      }

      .cls-11 {
        fill: #53752c;
      }

      .cls-12 {
        fill: #161515;
      }

      .cls-13 {
        fill: #565496;
      }

      .cls-14 {
        fill: #a0a0a0;
      }

      .cls-15 {
        fill: #3771b7;
      }

      .cls-16 {
        fill: #bababa;
      }

      .cls-17 {
        fill: #c8cfd6;
      }

      .cls-18 {
        fill: #2f6bc1;
      }

      .cls-19 {
        fill: #d6d6d6;
      }

      .cls-20 {
        fill: #3a396b;
      }

      .cls-21 {
        fill: url(#Sfumatura_senza_nome_13-4);
      }

      .cls-22 {
        fill: url(#Sfumatura_senza_nome_13-6);
      }

      .cls-23 {
        fill: #37393a;
      }

      .cls-24 {
        fill: #2e3135;
      }

      .cls-25 {
        fill: #af1515;
      }

      .cls-26 {
        fill: #969696;
      }

      .cls-27 {
        fill: #282828;
      }

      .cls-28 {
        fill: #383434;
      }

      .cls-29 {
        fill: #444;
      }

      .cls-30 {
        fill: #aaa733;
      }

      .cls-31 {
        fill: #ef2e2e;
      }

      .cls-32 {
        fill: #e02828;
      }

      .cls-33 {
        fill: #424242;
      }

      .cls-34 {
        fill: #ce2424;
      }

      .cls-35 {
        fill: #878787;
      }

      .cls-36 {
        fill: #494949;
      }

      .cls-37 {
        fill: #adadad;
      }

      .cls-38 {
        fill: url(#Sfumatura_senza_nome_13-3);
      }

      .cls-39 {
        fill: #bcbcbc;
      }

      .cls-40 {
        fill: #3a6cd8;
      }

      .cls-41 {
        fill: #49447f;
      }

      .cls-42 {
        fill: #191919;
      }

      .cls-43 {
        fill: #6d9b3d;
      }

      .cls-44 {
        fill: #313156;
      }

      .cls-45 {
        fill: #5e2e14;
      }

      .cls-46 {
        fill: #353531;
      }

      .cls-47 {
        fill: #26639e;
      }

      .cls-48 {
        fill: #cecece;
      }

      .cls-49 {
        fill: #111010;
      }

      .cls-50 {
        fill: #474849;
      }

      .cls-51 {
        fill: #282525;
      }

      .cls-52 {
        fill: url(#Sfumatura_senza_nome_13);
      }

      .cls-53 {
        fill: #5d5da5;
      }

      .cls-54 {
        fill: #a81d1d;
      }

      .cls-55 {
        fill: #1c1c1b;
      }

      .cls-56 {
        fill: #666;
      }

      .cls-57 {
        fill: url(#Sfumatura_senza_nome_13-5);
      }

      .cls-58 {
        fill: #5e5e5e;
      }

      .cls-59 {
        fill: #1d1d21;
      }
    </style>
    <linearGradient id="Sfumatura_senza_nome_13" data-name="Sfumatura senza nome 13" x1="293.68" y1="510.49" x2="396.46" y2="510.49" gradientUnits="userSpaceOnUse">
      <stop offset="0" stop-color="#38aa00"/>
      <stop offset="1" stop-color="#1c5500"/>
    </linearGradient>
    <linearGradient id="Sfumatura_senza_nome_13-2" data-name="Sfumatura senza nome 13" x1="124.62" y1="602.72" x2="227.4" y2="602.72" xlink:href="#Sfumatura_senza_nome_13"/>
    <linearGradient id="Sfumatura_senza_nome_13-3" data-name="Sfumatura senza nome 13" x1="681.75" y1="292.2" x2="784.54" y2="292.2" xlink:href="#Sfumatura_senza_nome_13"/>
    <linearGradient id="Sfumatura_senza_nome_13-4" data-name="Sfumatura senza nome 13" x1="512.69" y1="384.43" x2="615.48" y2="384.43" xlink:href="#Sfumatura_senza_nome_13"/>
    <linearGradient id="Sfumatura_senza_nome_13-5" data-name="Sfumatura senza nome 13" x1="1061.34" y1="75.07" x2="1164.13" y2="75.07" xlink:href="#Sfumatura_senza_nome_13"/>
    <linearGradient id="Sfumatura_senza_nome_13-6" data-name="Sfumatura senza nome 13" x1="892.28" y1="167.3" x2="995.07" y2="167.3" xlink:href="#Sfumatura_senza_nome_13"/>
  </defs>
  <g id="Livello_1" data-name="Livello 1">
    <g>
      <g>
        <polygon class="cls-42" points="1845.73 616.13 737.51 1257.01 0 834.49 1108.22 194.13 1845.73 616.13"/>
        <polygon class="cls-39" points="1845.73 616.13 1845.73 718.85 737.51 1357.64 737.51 1257.01 1845.73 616.13"/>
        <polygon class="cls-37" points="737.51 1357.64 0 945.05 0 834.49 737.51 1257.01 737.51 1357.64"/>
      </g>
      <g>
        <g>
          <g>
            <path class="cls-26" d="m430.87,733.97h0v-18.93h-171.6v20.86h.07c.7,12.12,8.95,24.09,24.79,33.25,33.25,19.24,87.92,19.24,121.49,0,16.84-9.65,25.25-22.41,25.25-35.18Z"/>
            <path class="cls-48" d="m284.41,679.98c-33.41,19.4-33.54,51.01-.29,70.24,33.25,19.24,87.92,19.24,121.49,0,33.57-19.24,33.7-50.85.29-70.24-33.41-19.4-88.08-19.4-121.49,0Z"/>
            <path class="cls-11" d="m295.26,706.98c27.44-15.93,72.33-15.93,99.77,0,9.1,5.28,15.15,11.68,18.2,18.43,6.1-13.53.05-28.56-18.2-39.16-27.44-15.93-72.33-15.93-99.77,0-18.33,10.64-24.44,25.76-18.35,39.34,3.06-6.82,9.16-13.28,18.35-18.61Z"/>
            <path class="cls-43" d="m295.02,743.93c27.31,15.8,72.2,15.8,99.77,0,9.23-5.29,15.36-11.72,18.43-18.53-3.04-6.76-9.09-13.15-18.2-18.43-27.44-15.93-72.33-15.93-99.77,0-9.18,5.33-15.29,11.79-18.35,18.61,3.03,6.74,9.05,13.1,18.11,18.34Z"/>
          </g>
          <path class="cls-11" d="m377.02,726.96c0,4.1-8.54,7.42-19.07,7.42s-19.07-3.32-19.07-7.42,8.54-7.42,19.07-7.42,19.07,3.32,19.07,7.42Z"/>
          <g>
            <path class="cls-45" d="m380.38,560.32l-4.54-2.42c-1.09-.58-2.45-.17-3.03.92l-21.55,40.37v-50.59c0-1.23-1.01-2.24-2.24-2.24h-7.89c-1.23,0-2.24,1.01-2.24,2.24v50.59l-21.55-40.37c-.58-1.09-1.94-1.5-3.03-.92l-4.54,2.42c-1.09.58-1.5,1.94-.92,3.03l28.25,52.92c.37.69,1.06,1.11,1.79,1.17v108.68c0,1.23,1.01,2.24,2.24,2.24h7.89c1.23,0,2.24-1.01,2.24-2.24v-108.68c.73-.06,1.42-.48,1.79-1.17l28.25-52.92c.58-1.09.17-2.45-.92-3.03Z"/>
            <ellipse class="cls-52" cx="345.07" cy="510.49" rx="51.39" ry="75.07"/>
          </g>
        </g>
        <g>
          <g>
            <path class="cls-26" d="m261.8,826.2h0v-18.93H90.21v20.86h.07c.7,12.12,8.95,24.09,24.79,33.25,33.25,19.24,87.92,19.24,121.49,0,16.84-9.65,25.25-22.41,25.25-35.18Z"/>
            <path class="cls-48" d="m115.35,772.21c-33.41,19.4-33.54,51.01-.29,70.24,33.25,19.24,87.92,19.24,121.49,0,33.57-19.24,33.7-50.85.29-70.24-33.41-19.4-88.08-19.4-121.49,0Z"/>
            <path class="cls-11" d="m126.2,799.2c27.44-15.93,72.33-15.93,99.77,0,9.1,5.28,15.15,11.68,18.2,18.43,6.1-13.53.05-28.56-18.2-39.16-27.44-15.93-72.33-15.93-99.77,0-18.33,10.64-24.44,25.76-18.35,39.34,3.06-6.82,9.16-13.28,18.35-18.61Z"/>
            <path class="cls-43" d="m125.96,836.16c27.31,15.8,72.2,15.8,99.77,0,9.23-5.29,15.36-11.72,18.43-18.53-3.04-6.76-9.09-13.15-18.2-18.43-27.44-15.93-72.33-15.93-99.77,0-9.18,5.33-15.29,11.79-18.35,18.61,3.03,6.74,9.05,13.1,18.11,18.34Z"/>
          </g>
          <path class="cls-11" d="m207.96,819.19c0,4.1-8.54,7.42-19.07,7.42s-19.07-3.32-19.07-7.42,8.54-7.42,19.07-7.42,19.07,3.32,19.07,7.42Z"/>
          <g>
            <path class="cls-45" d="m211.31,652.55l-4.54-2.42c-1.09-.58-2.45-.17-3.03.92l-21.55,40.37v-50.59c0-1.23-1.01-2.24-2.24-2.24h-7.89c-1.23,0-2.24,1.01-2.24,2.24v50.59l-21.55-40.37c-.58-1.09-1.94-1.5-3.03-.92l-4.54,2.42c-1.09.58-1.5,1.94-.92,3.03l28.25,52.92c.37.69,1.06,1.11,1.79,1.17v108.68c0,1.23,1.01,2.24,2.24,2.24h7.89c1.23,0,2.24-1.01,2.24-2.24v-108.68c.73-.06,1.42-.48,1.79-1.17l28.25-52.92c.58-1.09.17-2.45-.92-3.03Z"/>
            <ellipse class="cls-4" cx="176.01" cy="602.72" rx="51.39" ry="75.07"/>
          </g>
        </g>
      </g>
      <g>
        <g>
          <g>
            <path class="cls-26" d="m818.94,515.69h0v-18.93h-171.6v20.86h.07c.7,12.12,8.95,24.09,24.79,33.25,33.25,19.24,87.92,19.24,121.49,0,16.84-9.65,25.25-22.41,25.25-35.18Z"/>
            <path class="cls-48" d="m672.49,461.7c-33.41,19.4-33.54,51.01-.29,70.24,33.25,19.24,87.92,19.24,121.49,0,33.57-19.24,33.7-50.85.29-70.24-33.41-19.4-88.08-19.4-121.49,0Z"/>
            <path class="cls-11" d="m683.33,488.69c27.44-15.93,72.33-15.93,99.77,0,9.1,5.28,15.15,11.68,18.2,18.43,6.1-13.53.05-28.56-18.2-39.16-27.44-15.93-72.33-15.93-99.77,0-18.33,10.64-24.44,25.76-18.35,39.34,3.06-6.82,9.16-13.28,18.35-18.61Z"/>
            <path class="cls-43" d="m683.1,525.65c27.31,15.8,72.2,15.8,99.77,0,9.23-5.29,15.36-11.72,18.43-18.53-3.04-6.76-9.09-13.15-18.2-18.43-27.44-15.93-72.33-15.93-99.77,0-9.18,5.33-15.29,11.79-18.35,18.61,3.03,6.74,9.05,13.1,18.11,18.34Z"/>
          </g>
          <ellipse class="cls-11" cx="746.03" cy="508.68" rx="19.07" ry="7.42"/>
          <g>
            <path class="cls-45" d="m768.45,342.04l-4.54-2.42c-1.09-.58-2.45-.17-3.03.92l-21.55,40.37v-50.59c0-1.23-1.01-2.24-2.24-2.24h-7.89c-1.23,0-2.24,1.01-2.24,2.24v50.59l-21.55-40.37c-.58-1.09-1.94-1.5-3.03-.92l-4.54,2.42c-1.09.58-1.5,1.94-.92,3.03l28.25,52.92c.37.69,1.06,1.11,1.79,1.17v108.68c0,1.23,1.01,2.24,2.24,2.24h7.89c1.23,0,2.24-1.01,2.24-2.24v-108.68c.73-.06,1.42-.48,1.79-1.17l28.25-52.92c.58-1.09.17-2.45-.92-3.03Z"/>
            <ellipse class="cls-38" cx="733.15" cy="292.2" rx="51.39" ry="75.07"/>
          </g>
        </g>
        <g>
          <g>
            <path class="cls-26" d="m649.88,607.91h0v-18.93h-171.6v20.86h.07c.7,12.12,8.95,24.09,24.79,33.25,33.25,19.24,87.92,19.24,121.49,0,16.84-9.65,25.25-22.41,25.25-35.18Z"/>
            <path class="cls-48" d="m503.43,553.92c-33.41,19.4-33.54,51.01-.29,70.24,33.25,19.24,87.92,19.24,121.49,0,33.57-19.24,33.7-50.85.29-70.24-33.41-19.4-88.08-19.4-121.49,0Z"/>
            <path class="cls-11" d="m514.27,580.92c27.44-15.93,72.33-15.93,99.77,0,9.1,5.28,15.15,11.68,18.2,18.43,6.1-13.53.05-28.56-18.2-39.16-27.44-15.93-72.33-15.93-99.77,0-18.33,10.64-24.44,25.76-18.35,39.34,3.06-6.82,9.16-13.28,18.35-18.61Z"/>
            <path class="cls-43" d="m514.04,617.88c27.31,15.8,72.2,15.8,99.77,0,9.23-5.29,15.36-11.72,18.43-18.53-3.04-6.76-9.09-13.15-18.2-18.43-27.44-15.93-72.33-15.93-99.77,0-9.18,5.33-15.29,11.79-18.35,18.61,3.03,6.74,9.05,13.1,18.11,18.34Z"/>
          </g>
          <path class="cls-11" d="m596.04,600.91c0,4.1-8.54,7.42-19.07,7.42s-19.07-3.32-19.07-7.42,8.54-7.42,19.07-7.42,19.07,3.32,19.07,7.42Z"/>
          <g>
            <path class="cls-45" d="m599.39,434.26l-4.54-2.42c-1.09-.58-2.45-.17-3.03.92l-21.55,40.37v-50.59c0-1.23-1.01-2.24-2.24-2.24h-7.89c-1.23,0-2.24,1.01-2.24,2.24v50.59l-21.55-40.37c-.58-1.09-1.94-1.5-3.03-.92l-4.54,2.42c-1.09.58-1.5,1.94-.92,3.03l28.25,52.92c.37.69,1.06,1.11,1.79,1.17v108.68c0,1.23,1.01,2.24,2.24,2.24h7.89c1.23,0,2.24-1.01,2.24-2.24v-108.68c.73-.06,1.42-.48,1.79-1.17l28.25-52.92c.58-1.09.17-2.45-.92-3.03Z"/>
            <ellipse class="cls-21" cx="564.09" cy="384.43" rx="51.39" ry="75.07"/>
          </g>
        </g>
      </g>
      <g>
        <g>
          <g>
            <path class="cls-26" d="m1198.53,298.55h0v-18.93h-171.6v20.86h.07c.7,12.12,8.95,24.09,24.79,33.25,33.25,19.24,87.92,19.24,121.49,0,16.84-9.65,25.25-22.41,25.25-35.18Z"/>
            <path class="cls-48" d="m1052.08,244.56c-33.41,19.4-33.54,51.01-.29,70.24,33.25,19.24,87.92,19.24,121.49,0,33.57-19.24,33.7-50.85.29-70.24-33.41-19.4-88.08-19.4-121.49,0Z"/>
            <path class="cls-11" d="m1062.92,271.55c27.44-15.93,72.33-15.93,99.77,0,9.1,5.28,15.15,11.68,18.2,18.43,6.1-13.53.06-28.56-18.2-39.16-27.44-15.93-72.33-15.93-99.77,0-18.33,10.64-24.44,25.76-18.35,39.34,3.06-6.82,9.16-13.28,18.35-18.61Z"/>
            <path class="cls-43" d="m1062.68,308.51c27.31,15.8,72.2,15.8,99.77,0,9.23-5.29,15.36-11.72,18.43-18.53-3.04-6.76-9.09-13.15-18.2-18.43-27.44-15.93-72.33-15.93-99.77,0-9.18,5.33-15.29,11.79-18.35,18.61,3.03,6.74,9.05,13.1,18.11,18.34Z"/>
          </g>
          <ellipse class="cls-11" cx="1125.62" cy="291.54" rx="19.07" ry="7.42"/>
          <g>
            <path class="cls-45" d="m1148.04,124.9l-4.54-2.42c-1.09-.58-2.45-.17-3.03.92l-21.55,40.37v-50.59c0-1.23-1.01-2.24-2.24-2.24h-7.89c-1.23,0-2.24,1.01-2.24,2.24v50.59l-21.55-40.37c-.58-1.09-1.94-1.5-3.03-.92l-4.54,2.42c-1.09.58-1.5,1.94-.92,3.03l28.25,52.92c.37.69,1.06,1.11,1.79,1.17v108.68c0,1.23,1.01,2.24,2.24,2.24h7.89c1.23,0,2.24-1.01,2.24-2.24v-108.68c.73-.06,1.42-.48,1.79-1.17l28.25-52.92c.58-1.09.17-2.45-.92-3.03Z"/>
            <ellipse class="cls-57" cx="1112.73" cy="75.07" rx="51.39" ry="75.07"/>
          </g>
        </g>
        <g>
          <g>
            <path class="cls-26" d="m1029.47,390.78h0v-18.93h-171.6v20.86h.07c.7,12.12,8.95,24.09,24.79,33.25,33.25,19.24,87.92,19.24,121.49,0,16.84-9.65,25.25-22.41,25.25-35.18Z"/>
            <path class="cls-48" d="m883.01,336.79c-33.41,19.4-33.54,51.01-.29,70.24,33.25,19.24,87.92,19.24,121.49,0,33.57-19.24,33.7-50.85.29-70.24-33.41-19.4-88.08-19.4-121.49,0Z"/>
            <path class="cls-11" d="m893.86,363.78c27.44-15.93,72.33-15.93,99.77,0,9.1,5.28,15.15,11.68,18.2,18.43,6.1-13.53.06-28.56-18.2-39.16-27.44-15.93-72.33-15.93-99.77,0-18.33,10.64-24.44,25.76-18.35,39.34,3.06-6.82,9.16-13.28,18.35-18.61Z"/>
            <path class="cls-43" d="m893.62,400.74c27.31,15.8,72.2,15.8,99.77,0,9.23-5.29,15.36-11.72,18.43-18.53-3.04-6.76-9.09-13.15-18.2-18.43-27.44-15.93-72.33-15.93-99.77,0-9.18,5.33-15.29,11.79-18.35,18.61,3.03,6.74,9.05,13.1,18.11,18.34Z"/>
          </g>
          <path class="cls-11" d="m975.62,383.77c0,4.1-8.54,7.42-19.07,7.42s-19.07-3.32-19.07-7.42,8.54-7.42,19.07-7.42,19.07,3.32,19.07,7.42Z"/>
          <g>
            <path class="cls-45" d="m978.98,217.13l-4.54-2.42c-1.09-.58-2.45-.17-3.03.92l-21.55,40.37v-50.59c0-1.23-1.01-2.24-2.24-2.24h-7.89c-1.23,0-2.24,1.01-2.24,2.24v50.59l-21.55-40.37c-.58-1.09-1.94-1.5-3.03-.92l-4.54,2.42c-1.09.58-1.5,1.94-.92,3.03l28.25,52.92c.37.69,1.06,1.11,1.79,1.17v108.68c0,1.23,1.01,2.24,2.24,2.24h7.89c1.23,0,2.24-1.01,2.24-2.24v-108.68c.73-.06,1.42-.48,1.79-1.17l28.25-52.92c.58-1.09.17-2.45-.92-3.03Z"/>
            <ellipse class="cls-22" cx="943.67" cy="167.3" rx="51.39" ry="75.07"/>
          </g>
        </g>
      </g>
      <g>
        <polygon class="cls-19" points="1358.3 306.44 245.71 945.61 188.06 912.4 1300.64 273.39 1358.3 306.44"/>
        <polygon class="cls-39" points="1358.3 306.44 1358.3 337.24 245.71 975.78 245.71 945.61 1358.3 306.44"/>
        <polygon class="cls-37" points="245.71 975.78 188.06 942.6 188.06 912.4 245.71 945.61 245.71 975.78"/>
      </g>
      <g>
        <g>
          <polygon class="cls-26" points="433.97 961.86 374.94 927.86 315.44 961.86 374.7 996.1 433.97 961.86"/>
          <polygon class="cls-58" points="374.7 1008.61 374.7 996.1 315.44 961.86 315.44 974.37 374.7 1008.61"/>
          <polygon class="cls-36" points="433.97 974.37 433.97 961.86 374.7 996.1 374.7 1008.61 433.97 974.37"/>
        </g>
        <path class="cls-6" d="m317.87,670.97c0-34.33,24.42-76.4,54.26-93.51,13.54-7.76,25.94-9.12,35.48-5.13h.03s.82.35.82.35c.05.02.1.04.15.07l10.69,4.75-.88,3.17c5.05,6.51,7.98,15.88,7.98,27.67,0,34.09-24.42,76.17-54.26,93.51-8.43,4.9-16.43,7.3-23.57,7.46l-1.55,2.47-8.62-3.96c-1.77-.6-3.46-1.37-5.04-2.31l-.1-.04v-.02c-9.51-5.74-15.38-17.64-15.38-34.46Z"/>
        <g>
          <polygon class="cls-5" points="389.32 690.28 389.32 962.8 374.7 970.29 374.7 698.4 389.32 690.28"/>
          <polygon class="cls-1" points="360.09 690.28 360.09 962.8 374.7 970.29 374.7 698.4 360.09 690.28"/>
        </g>
        <path class="cls-15" d="m383.71,582.6c29.84-17.1,54.26-3.21,54.26,30.88s-24.42,76.17-54.26,93.51c-29.84,17.34-54.26,3.44-54.26-30.88s24.42-76.4,54.26-93.51Z"/>
        <path class="cls-9" d="m383.71,588.68c26.93-15.44,48.97-2.89,48.97,27.87s-22.04,68.74-48.97,84.39c-26.93,15.65-48.97,3.11-48.97-27.87s22.04-68.96,48.97-84.39Z"/>
        <path class="cls-3" d="m366.08,628.09v54.45l11.85-6.77v-27.23l23.42-13.54v-27.79l-35.27,20.88Zm24.96,4.16l-13.18,7.83v-10.4l13.18-7.46v10.03Z"/>
      </g>
      <g>
        <g>
          <polygon class="cls-26" points="1415.56 406.15 1356.53 372.15 1297.03 406.15 1356.29 440.39 1415.56 406.15"/>
          <polygon class="cls-58" points="1356.29 452.9 1356.29 440.39 1297.03 406.15 1297.03 418.66 1356.29 452.9"/>
          <polygon class="cls-36" points="1415.56 418.66 1415.56 406.15 1356.29 440.39 1356.29 452.9 1415.56 418.66"/>
        </g>
        <path class="cls-6" d="m1299.46,115.25c0-34.33,24.42-76.4,54.26-93.51,13.54-7.76,25.94-9.12,35.48-5.13h.03s.82.35.82.35c.05.02.1.04.15.07l10.69,4.75-.88,3.17c5.05,6.51,7.98,15.88,7.98,27.67,0,34.09-24.42,76.17-54.26,93.51-8.43,4.9-16.43,7.3-23.57,7.46l-1.55,2.47-8.62-3.96c-1.77-.6-3.46-1.37-5.04-2.31l-.1-.04v-.02c-9.51-5.74-15.38-17.64-15.38-34.46Z"/>
        <g>
          <polygon class="cls-5" points="1370.91 134.57 1370.91 407.08 1356.29 414.58 1356.29 142.69 1370.91 134.57"/>
          <polygon class="cls-1" points="1341.67 134.57 1341.67 407.08 1356.29 414.58 1356.29 142.69 1341.67 134.57"/>
        </g>
        <path class="cls-15" d="m1365.3,26.89c29.84-17.1,54.26-3.21,54.26,30.88s-24.42,76.17-54.26,93.51c-29.84,17.34-54.26,3.44-54.26-30.88s24.42-76.4,54.26-93.51Z"/>
        <path class="cls-9" d="m1365.3,32.96c26.93-15.44,48.97-2.89,48.97,27.87s-22.04,68.74-48.97,84.39c-26.93,15.65-48.97,3.11-48.97-27.87s22.04-68.96,48.97-84.39Z"/>
        <path class="cls-3" d="m1347.67,72.37v54.45l11.85-6.77v-27.23l23.42-13.54v-27.79l-35.27,20.88Zm24.96,4.16l-13.18,7.83v-10.4l13.18-7.46v10.03Z"/>
      </g>
      <path class="cls-19" d="m867.66,1157.57l-.97-.56-449.22-259.79,227.89-131.08.97.56,446.3,257.89,2.92,1.69-227.89,131.29Zm-442.41-260.34l442.42,255.85,220.1-126.81-442.42-255.64-220.1,126.6Z"/>
      <path class="cls-19" d="m1167.65,987.89l-.97-.56-449.22-259.79,227.89-131.08.97.56,446.3,257.89,2.92,1.69-227.89,131.29Zm-442.41-260.34l442.42,255.85,220.1-126.81-442.42-255.64-220.1,126.6Z"/>
      <path class="cls-19" d="m1459.21,818.97l-.97-.56-449.22-259.79,227.89-131.08.97.56,446.3,257.89,2.92,1.69-227.89,131.29Zm-442.41-260.34l442.42,255.85,220.1-126.81-442.42-255.64-220.1,126.6Z"/>
      <g>
        <path class="cls-36" d="m763.46,1014.07l-12.08-7.68s14.15-13.2,14.67-13.03c.52.17,18.69,2.59,18.69,2.59l-1.26,10.44-20.03,7.68Z"/>
        <path class="cls-36" d="m578.18,908.04l-12.08-7.68s14.15-13.2,14.67-13.03c.52.17,18.69,2.59,18.69,2.59l-1.26,10.44-20.03,7.68Z"/>
        <g>
          <path class="cls-27" d="m772.56,1017.02l-9.56-10.21,17.13-10.24c.64-.49,1.31-.93,2.01-1.31l.12-.08h0c5.61-2.96,13.18-2.45,21.49,2.29,17.17,9.8,31.22,34.27,31.22,54.36,0,8.74-2.66,15.23-7.08,18.95h0s0,0,0,0c-1.13.95-2.39,1.72-3.73,2.3l-17.27,10.62-9.18-17.84c-13.96-11.37-24.63-31.66-25.14-48.86Z"/>
          <path class="cls-49" d="m815.96,1063.34c0-20.1-14.05-44.56-31.22-54.36-17.17-9.8-31.22-1.58-31.22,18.27s14.05,44.32,31.22,54.36c17.17,10.05,31.22,1.83,31.22-18.27Z"/>
          <path class="cls-56" d="m806.03,1057.62c0-13.7-9.58-30.38-21.28-37.07-11.71-6.68-21.28-1.08-21.28,12.46s9.58,30.22,21.28,37.07c11.71,6.85,21.28,1.25,21.28-12.46Z"/>
          <path class="cls-27" d="m796.47,1052.11c0-7.55-5.28-16.74-11.73-20.43-6.45-3.68-11.73-.59-11.73,6.86s5.28,16.65,11.73,20.43c6.45,3.78,11.73.69,11.73-6.86Z"/>
        </g>
        <g>
          <path class="cls-27" d="m587.62,912.5l-9.56-10.21,17.13-10.24c.64-.49,1.31-.92,2.01-1.3l.12-.08h0c5.61-2.96,13.18-2.45,21.49,2.29,17.17,9.8,31.22,34.27,31.22,54.36,0,8.74-2.66,15.23-7.08,18.95h0s0,0,0,0c-1.13.95-2.39,1.72-3.73,2.3l-17.27,10.62-9.18-17.84c-13.95-11.37-24.63-31.66-25.14-48.86Z"/>
          <path class="cls-49" d="m631.03,958.81c0-20.1-14.05-44.56-31.22-54.36-17.17-9.8-31.22-1.58-31.22,18.27s14.05,44.32,31.22,54.36c17.17,10.05,31.22,1.83,31.22-18.27Z"/>
          <path class="cls-56" d="m621.09,953.09c0-13.7-9.58-30.38-21.28-37.07-11.71-6.68-21.28-1.08-21.28,12.46s9.58,30.22,21.28,37.07c11.71,6.85,21.28,1.25,21.28-12.46Z"/>
          <path class="cls-27" d="m611.54,947.59c0-7.55-5.28-16.74-11.73-20.43-6.45-3.68-11.73-.59-11.73,6.86s5.28,16.65,11.73,20.43c6.45,3.78,11.73.69,11.73-6.86Z"/>
        </g>
        <path class="cls-44" d="m605.35,872.01l51.95-50.49,121,69.91,16.83,90.36,70.16,39.35v40.13l-43.74-25.07c-7.42-13.02-17.69-24.36-29.02-30.83-11.34-6.48-21.64-6.94-29.06-2.46l-127.01-72.8c-7.35-12.49-17.33-23.3-28.28-29.56-10.97-6.27-20.97-6.9-28.32-2.89l-25.79-14.78v-40.39l51.26,29.52Z"/>
        <polygon class="cls-41" points="985.18 951.5 985.18 991.89 865.3 1061.27 865.3 1021.14 985.18 951.5"/>
        <polygon class="cls-13" points="865.3 1021.14 795.14 981.79 916.57 911.37 985.18 951.5 865.3 1021.14"/>
        <polygon class="cls-20" points="795.14 981.79 778.31 891.43 899.48 821.52 916.57 911.37 795.14 981.79"/>
        <polygon class="cls-59" points="803.76 968.58 789.7 893.11 890.9 834.73 905.17 909.77 803.76 968.58"/>
        <polygon class="cls-13" points="899.48 821.52 778.31 752.05 657.31 821.52 778.31 891.43 899.48 821.52"/>
        <polygon class="cls-53" points="554.09 842.49 674.23 771.04 709.7 791.44 657.31 821.52 605.35 872.01 554.09 842.49"/>
        <polygon class="cls-59" points="781.93 971.69 767.69 896.09 677.33 843.79 677.33 912.66 781.93 971.69"/>
        <polygon class="cls-59" points="671.81 908.8 671.81 841.55 659.04 833.26 615.63 877.02 671.81 908.8"/>
        <polygon class="cls-30" points="978.19 973.24 978.19 985.48 956.5 998.36 956.5 985.8 978.19 973.24"/>
        <polygon class="cls-30" points="894.3 1021.14 894.3 1033.37 872.61 1046.26 872.61 1033.7 894.3 1021.14"/>
        <polygon class="cls-46" points="941.42 996.46 941.42 1004.11 909.77 1021.96 909.77 1015.07 941.42 996.46"/>
        <polygon class="cls-2" points="985.18 991.89 985.18 1004.31 865.3 1074.57 865.3 1061.27 985.18 991.89"/>
        <path class="cls-55" d="m763.49,1002.91c-3.25,1.96-5.94,4.86-7.93,8.62l-110.85-63.66c-2.1-6.09-4.89-12.1-8.23-17.76l127.01,72.8Z"/>
        <path class="cls-55" d="m865.3,1061.27v13.29l-35.81-20.56c-1.99-6.08-4.69-12.1-7.93-17.8l43.74,25.07Z"/>
        <path class="cls-55" d="m571.65,905.92l-17.56-10.09v-12.95l25.79,14.78c-3.34,1.82-6.13,4.6-8.23,8.25Z"/>
      </g>
      <g>
        <path class="cls-29" d="m1072.53,853.65l-11.29-6.88s5.51-11.56,6.61-12.39,11.84-8.81,18.45-7.71c6.61,1.1,9.91-.69,11.56,4.54,1.65,5.23,1.93,10.91,1.93,10.91l-27.26,11.53Z"/>
        <path class="cls-29" d="m878.48,740.78l-11.29-6.88s5.51-11.56,6.61-12.39c1.1-.83,11.84-8.81,18.45-7.71,6.61,1.1,9.91-.69,11.56,4.54,1.65,5.23,1.93,10.91,1.93,10.91l-27.26,11.53Z"/>
        <g>
          <path class="cls-27" d="m888.8,742.84l-9.11-9.73,16.32-9.76c.61-.47,1.24-.88,1.91-1.24l.11-.07h0c5.34-2.82,12.56-2.34,20.48,2.18,16.36,9.34,29.75,32.66,29.75,51.81,0,8.33-2.53,14.51-6.74,18.06h0s0,0,0,0c-1.08.91-2.27,1.64-3.56,2.19l-16.46,10.12-8.74-17c-13.3-10.83-23.47-30.17-23.96-46.56Z"/>
          <path class="cls-49" d="m930.16,786.97c0-19.15-13.39-42.46-29.75-51.81-16.36-9.34-29.75-1.51-29.75,17.41s13.39,42.23,29.75,51.81c16.36,9.58,29.75,1.74,29.75-17.41Z"/>
          <path class="cls-56" d="m920.7,781.53c0-13.06-9.13-28.95-20.28-35.32s-20.28-1.03-20.28,11.87,9.13,28.79,20.28,35.32c11.16,6.53,20.28,1.19,20.28-11.87Z"/>
          <path class="cls-27" d="m911.59,776.28c0-7.2-5.03-15.95-11.18-19.46-6.15-3.51-11.18-.57-11.18,6.54s5.03,15.87,11.18,19.46c6.15,3.6,11.18.65,11.18-6.54Z"/>
        </g>
        <g>
          <path class="cls-27" d="m1082.48,853.74l-9.11-9.73,16.32-9.76c.61-.47,1.24-.88,1.91-1.24l.11-.07h0c5.34-2.83,12.56-2.34,20.48,2.18,16.36,9.34,29.75,32.66,29.75,51.81,0,8.33-2.53,14.51-6.74,18.06h0s0,0,0,0c-1.08.91-2.27,1.64-3.56,2.19l-16.46,10.12-8.75-17c-13.3-10.83-23.47-30.17-23.96-46.56Z"/>
          <path class="cls-49" d="m1123.84,897.87c0-19.15-13.39-42.46-29.75-51.81-16.36-9.34-29.75-1.51-29.75,17.41s13.39,42.23,29.75,51.81c16.36,9.58,29.75,1.74,29.75-17.41Z"/>
          <path class="cls-56" d="m1114.38,892.42c0-13.06-9.13-28.95-20.28-35.32-11.16-6.37-20.28-1.03-20.28,11.87s9.13,28.79,20.28,35.32c11.16,6.53,20.28,1.19,20.28-11.87Z"/>
          <path class="cls-27" d="m1105.27,887.18c0-7.19-5.03-15.95-11.18-19.46-6.15-3.51-11.18-.57-11.18,6.54s5.03,15.87,11.18,19.46c6.15,3.6,11.18.65,11.18-6.54Z"/>
        </g>
        <polygon class="cls-34" points="1276.08 794.78 1276.08 837.18 1165.4 901.6 1165.4 859.02 1276.08 794.78"/>
        <polygon class="cls-31" points="1165.4 859.02 1092.08 816.07 1203.03 752.2 1276.08 794.78 1165.4 859.02"/>
        <polygon class="cls-32" points="1203.03 752.2 961.86 614.18 853.39 678.41 908.27 709.62 1203.03 752.2"/>
        <polygon class="cls-8" points="1092.08 816.07 1073.36 720.54 1184.08 656.39 1203.03 752.2 1092.08 816.07"/>
        <path class="cls-54" d="m908.27,709.62l53.59-53.23,111.5,64.15,18.72,95.53,73.32,42.95v42.58l-35.54-20.63c-5.11-17.43-17.33-34.69-31.51-42.79-14.09-8.05-26.25-4.96-31.42,6.27l-129.94-75.4c-5.18-17.27-17.33-34.31-31.39-42.34-13.97-7.97-26.03-5.02-31.28,5.98l-20.94-12.15v-42.12l54.88,31.2Z"/>
        <polygon class="cls-51" points="1102.46 798.1 1087.95 724.07 1173.75 674.36 1188.44 748.6 1102.46 798.1"/>
        <polygon class="cls-31" points="1184.08 656.39 1073.36 593.62 961.86 656.39 1073.36 720.54 1184.08 656.39"/>
        <polygon class="cls-51" points="1078.04 805.61 1062.62 728.24 1009.4 697.69 1009.4 764.31 1078.04 805.61"/>
        <polygon class="cls-51" points="998.48 758.94 998.48 693.56 962.96 673.18 921.66 713.52 998.48 758.94"/>
        <path class="cls-1" d="m1259.56,817.29c5.15-2.88,9.36-.48,9.36,5.32s-4.21,12.95-9.36,15.88c-5.15,2.93-9.36.53-9.36-5.32s4.21-13,9.36-15.88Z"/>
        <path class="cls-1" d="m1184.08,862.07c5.15-2.88,9.36-.48,9.36,5.32s-4.21,12.95-9.36,15.88c-5.15,2.93-9.36.53-9.36-5.32s4.21-13,9.36-15.88Z"/>
        <polygon class="cls-28" points="1242.12 833.67 1242.12 845.18 1203.03 867.63 1203.03 856.12 1242.12 833.67"/>
        <polygon class="cls-12" points="1017.5 785.48 1017.5 791.78 1038.91 804.08 1038.91 797.77 1017.5 785.48"/>
        <polygon class="cls-12" points="968.22 757.12 968.22 763.43 989.63 775.72 989.63 769.41 968.22 757.12"/>
        <polygon class="cls-25" points="1276.08 837.18 1276.08 844.98 1165.4 909.95 1165.4 901.6 1276.08 837.18"/>
        <path class="cls-10" d="m1165.4,901.6v8.35l-33.5-19.54c-.43-3.12-1.11-6.28-2.04-9.44l35.54,20.63Z"/>
        <path class="cls-10" d="m872.27,738.98l-18.88-11.01v-7.43l20.94,12.15c-.89,1.87-1.59,3.97-2.06,6.29Z"/>
        <path class="cls-10" d="m1066.93,844.45c-.93,2.02-1.63,4.32-2.07,6.85l-125.85-73.4c-.45-2.93-1.13-5.9-2.02-8.86l129.94,75.4Z"/>
      </g>
      <g>
        <polygon class="cls-16" points="1421.96 717.2 1412.83 722.65 1435.92 735.42 1569.49 658.18 1553.84 648.99 1421.96 717.2"/>
        <polygon class="cls-33" points="1346.67 669.64 1332.35 660.96 1354.22 640.15 1370.66 643.22 1365.06 667.37 1346.67 669.64"/>
        <polygon class="cls-33" points="1225.26 599.2 1210.93 590.51 1232.8 569.71 1249.25 572.78 1243.65 596.92 1225.26 599.2"/>
        <polygon class="cls-40" points="1435.92 725.28 1435.92 671.39 1553.84 602.46 1553.84 657.39 1435.92 725.28"/>
        <polygon class="cls-7" points="1435.92 671.39 1389.73 617.5 1507.3 548.75 1553.84 602.46 1435.92 671.39"/>
        <polygon class="cls-18" points="1389.73 617.5 1365.94 521.98 1483.16 454.1 1507.3 548.75 1389.73 617.5"/>
        <polygon class="cls-23" points="1396.35 605.98 1375.91 523.93 1476.59 465.63 1497.33 546.92 1396.35 605.98"/>
        <polygon class="cls-50" points="1454.51 478.41 1458.36 569.71 1497.33 546.92 1476.59 465.63 1454.51 478.41"/>
        <polygon class="cls-50" points="1430.48 492.33 1432.64 584.75 1416.71 594.07 1414.74 501.45 1430.48 492.33"/>
        <polygon class="cls-7" points="1483.16 454.1 1319.14 359.63 1202.36 428.03 1365.94 521.98 1483.16 454.1"/>
        <path class="cls-17" d="m1534.5,634.29c5.82-3.35,10.58-.57,10.58,6.16s-4.76,14.98-10.58,18.33c-5.82,3.35-10.58.57-10.58-6.16s4.76-14.98,10.58-18.33Z"/>
        <path class="cls-17" d="m1456.3,678.02c5.82-3.35,10.58-.57,10.58,6.16s-4.76,14.98-10.58,18.33c-5.82,3.35-10.58.57-10.58-6.16s4.76-14.98,10.58-18.33Z"/>
        <polygon class="cls-24" points="1517.62 648.99 1517.62 665.12 1475.63 689.57 1475.63 672.87 1517.62 648.99"/>
        <g>
          <path class="cls-27" d="m1355.27,671l-8.6-9.18,15.4-9.21c.57-.44,1.17-.83,1.8-1.17l.11-.07h0c5.04-2.67,11.85-2.2,19.32,2.06,15.44,8.82,28.07,30.81,28.07,48.88,0,7.86-2.39,13.7-6.36,17.04h0s0,0,0,0c-1.02.86-2.15,1.54-3.36,2.06l-15.53,9.55-8.25-16.04c-12.55-10.22-22.15-28.47-22.6-43.94Z"/>
          <path class="cls-49" d="m1394.3,712.64c0-18.07-12.63-40.07-28.07-48.88-15.44-8.82-28.07-1.42-28.07,16.43s12.63,39.85,28.07,48.88c15.44,9.04,28.07,1.64,28.07-16.43Z"/>
          <path class="cls-56" d="m1385.37,707.5c0-12.32-8.61-27.32-19.14-33.33-10.53-6.01-19.14-.97-19.14,11.2s8.61,27.17,19.14,33.33c10.53,6.16,19.14,1.12,19.14-11.2Z"/>
          <path class="cls-27" d="m1376.78,702.55c0-6.79-4.75-15.05-10.55-18.37-5.8-3.31-10.55-.53-10.55,6.17s4.75,14.97,10.55,18.37c5.8,3.39,10.55.62,10.55-6.17Z"/>
        </g>
        <g>
          <path class="cls-27" d="m1234.9,600.98l-8.6-9.18,15.4-9.21c.57-.44,1.17-.83,1.8-1.17l.11-.07h0c5.04-2.67,11.85-2.2,19.32,2.06,15.44,8.82,28.07,30.81,28.07,48.88,0,7.86-2.39,13.7-6.36,17.04h0s0,0,0,0c-1.02.86-2.15,1.54-3.36,2.06l-15.53,9.55-8.25-16.04c-12.55-10.22-22.15-28.47-22.6-43.94Z"/>
          <path class="cls-49" d="m1273.93,642.62c0-18.07-12.63-40.07-28.07-48.88s-28.07-1.42-28.07,16.43,12.63,39.85,28.07,48.88c15.44,9.04,28.07,1.64,28.07-16.43Z"/>
          <path class="cls-56" d="m1265,637.48c0-12.32-8.61-27.32-19.14-33.33-10.53-6.01-19.14-.97-19.14,11.2s8.61,27.17,19.14,33.33c10.53,6.16,19.14,1.12,19.14-11.2Z"/>
          <path class="cls-27" d="m1256.41,632.53c0-6.79-4.75-15.05-10.55-18.37-5.8-3.31-10.55-.53-10.55,6.17s4.75,14.97,10.55,18.37c5.8,3.39,10.55.62,10.55-6.17Z"/>
        </g>
        <path class="cls-47" d="m1202.36,428.03l163.58,93.95,23.79,95.52,46.19,53.89v53.89l-31.9-18.45c-2.05-19.93-15.83-42.43-32.39-51.89-16.55-9.45-30.31-2.89-32.39,14.43l-55.78-32.26c-1.36-20.37-15.47-43.98-32.55-53.73-17.06-9.74-31.17-2.46-32.55,16.09l-16-9.25v-162.18Z"/>
        <polygon class="cls-14" points="1569.49 658.18 1569.49 671.39 1435.92 747.93 1435.92 735.42 1569.49 658.18"/>
        <polygon class="cls-35" points="1435.92 747.93 1412.83 735.42 1412.83 722.65 1435.92 735.42 1435.92 747.93"/>
        <polygon class="cls-23" points="1371.62 604.38 1353.25 531.43 1296.83 499.41 1296.83 560.56 1371.62 604.38"/>
        <polygon class="cls-50" points="1314.33 509.34 1326.66 578.03 1296.83 560.56 1296.83 499.41 1314.33 509.34"/>
        <polygon class="cls-50" points="1327.92 517.05 1340.71 586.27 1352.95 593.44 1338.93 523.3 1327.92 517.05"/>
      </g>
    </g>
  </g>
</svg>